<svg width="51" height="50" viewBox="0 0 51 50" fill="none" xmlns="http://www.w3.org/2000/svg">
<path d="M0.5 0H50.5V50H0.5V0Z" fill="#820AD1"/>
<mask id="mask0_31_12" style="mask-type:luminance" maskUnits="userSpaceOnUse" x="3" y="13" width="44" height="24">
<path d="M46.5672 13H3V36.6627H46.5672V13Z" fill="white"/>
</mask>
<g mask="url(#mask0_31_12)">
<path fill-rule="evenodd" clip-rule="evenodd" d="M15.4332 13.0207C14.1708 13.1098 12.955 13.518 11.9314 14.1961C11.5049 14.4787 11.2543 14.6776 10.9193 14.9994L10.6636 15.2452L10.1777 15.2596C9.45435 15.281 8.83044 15.3812 8.17276 15.5817C6.39115 16.1246 4.83081 17.3255 3.88714 18.8798C3.21653 19.9844 2.88289 21.193 2.80428 22.8024C2.79198 23.0545 2.78878 26.1425 2.79714 29.6933L2.81231 36.1273H5.68941H8.56652V28.2974C8.56652 20.9162 8.56918 20.4426 8.61284 20.0359C8.82443 18.0643 9.36307 16.7328 10.4532 15.4869L10.6381 15.2755L11.0139 15.2894C13.3631 15.3764 15.2964 16.3937 16.4936 18.1727C17.1692 19.1765 17.6019 20.3988 17.7734 21.7871C17.8648 22.5271 17.8693 22.8427 17.8853 29.5156L17.9011 36.1273H20.7782H23.6553L23.663 30.3278C23.6719 23.5368 23.6515 22.1281 23.5258 20.8353C23.3157 18.6753 22.6431 16.8956 21.5115 15.5057C21.3004 15.2465 20.7621 14.7159 20.4969 14.5058C19.1123 13.4084 17.3327 12.8865 15.4332 13.0207ZM25.4842 19.9026C25.4844 26.9116 25.4964 27.6711 25.6267 28.9573C25.8666 31.3262 26.7263 33.313 28.1039 34.6826C29.1726 35.7452 30.4151 36.3531 32.0306 36.604C32.505 36.6777 33.698 36.6831 34.1664 36.6138C34.6697 36.5393 35.063 36.4484 35.4981 36.3061C36.5056 35.9765 37.3641 35.4692 38.1943 34.7128L38.514 34.4215L38.9052 34.4179C41.2236 34.3968 43.489 33.2322 44.8864 31.3431C45.8611 30.0255 46.2906 28.6154 46.3475 26.5462C46.3573 26.1902 46.3622 23.1206 46.3584 19.7249L46.3516 13.551H43.4627H40.5738L40.5651 21.5143C40.5587 27.3892 40.5487 29.5375 40.5267 29.706C40.4224 30.5039 40.338 30.9485 40.1988 31.4319C39.8987 32.4738 39.4153 33.3599 38.7003 34.1787L38.514 34.392L38.0537 34.379C36.215 34.327 34.5034 33.5955 33.3306 32.3602C32.2428 31.2145 31.5621 29.6319 31.3537 27.7644C31.2735 27.0456 31.2611 26.1324 31.2466 19.8646L31.2318 13.551H28.3579H25.4839L25.4842 19.9026Z" fill="#F5F5F5"/>
</g>
</svg>
