<svg width="44" height="24" viewBox="0 0 44 24" fill="none" xmlns="http://www.w3.org/2000/svg">
<g clip-path="url(#clip0_0_1)">
<mask id="mask0_0_1" style="mask-type:luminance" maskUnits="userSpaceOnUse" x="0" y="0" width="44" height="24">
<path d="M43.5672 0H0V23.6627H43.5672V0Z" fill="white"/>
</mask>
<g mask="url(#mask0_0_1)">
<path fill-rule="evenodd" clip-rule="evenodd" d="M12.4332 0.0206639C11.1708 0.109827 9.95503 0.517953 8.93144 1.19608C8.50492 1.47867 8.25429 1.67763 7.91933 1.99944L7.66363 2.24518L7.17768 2.25957C6.45435 2.28099 5.83044 2.38122 5.17276 2.58165C3.39115 3.12465 1.83081 4.32548 0.887144 5.87983C0.216534 6.98445 -0.117108 8.19304 -0.195723 9.80238C-0.208025 10.0545 -0.211221 13.1425 -0.202858 16.6933L-0.187693 23.1273H2.68941H5.56652V15.2974C5.56652 7.9162 5.56918 7.44257 5.61284 7.03585C5.82443 5.06429 6.36307 3.73278 7.45315 2.48688L7.63806 2.27553L8.0139 2.28944C10.3631 2.37642 12.2964 3.39367 13.4936 5.17271C14.1692 6.17654 14.6019 7.39875 14.7734 8.78713C14.8648 9.52711 14.8693 9.84273 14.8853 16.5156L14.9011 23.1273H17.7782H20.6553L20.663 17.3278C20.6719 10.5368 20.6515 9.12809 20.5258 7.83533C20.3157 5.67533 19.6431 3.89565 18.5115 2.50566C18.3004 2.24647 17.7621 1.71593 17.4969 1.50575C16.1123 0.408408 14.3327 -0.1135 12.4332 0.0206639ZM22.4842 6.90262C22.4844 13.9116 22.4964 14.6711 22.6267 15.9573C22.8666 18.3262 23.7263 20.313 25.1039 21.6826C26.1726 22.7452 27.4151 23.3531 29.0306 23.604C29.505 23.6777 30.698 23.6831 31.1664 23.6138C31.6697 23.5393 32.063 23.4484 32.4981 23.3061C33.5056 22.9765 34.3641 22.4692 35.1943 21.7128L35.514 21.4215L35.9052 21.4179C38.2236 21.3968 40.489 20.2322 41.8864 18.3431C42.8611 17.0255 43.2906 15.6154 43.3475 13.5462C43.3573 13.1902 43.3622 10.1206 43.3584 6.72491L43.3516 0.551024H40.4627H37.5738L37.5651 8.51431C37.5587 14.3892 37.5487 16.5375 37.5267 16.706C37.4224 17.5039 37.338 17.9485 37.1988 18.4319C36.8987 19.4738 36.4153 20.3599 35.7003 21.1787L35.514 21.392L35.0537 21.379C33.215 21.327 31.5034 20.5955 30.3306 19.3602C29.2428 18.2145 28.5621 16.6319 28.3537 14.7644C28.2735 14.0456 28.2611 13.1324 28.2466 6.86456L28.2318 0.551024H25.3579H22.4839L22.4842 6.90262Z" fill="white"/>
</g>
</g>
<defs>
<clipPath id="clip0_0_1">
<rect width="44" height="24" fill="white"/>
</clipPath>
</defs>
</svg>
